<svg width="50" height="50" viewBox="0 0 50 50" fill="none" xmlns="http://www.w3.org/2000/svg">
<path d="M31.25 18.75H20C19.6685 18.75 19.3505 18.8817 19.1161 19.1161C18.8817 19.3505 18.75 19.6685 18.75 20V33.3333M18.75 43.75H31.25H18.75ZM18.75 43.75V33.3333V43.75ZM18.75 43.75H7.5C7.16848 43.75 6.85054 43.6183 6.61612 43.3839C6.3817 43.1495 6.25 42.8315 6.25 42.5V34.5833C6.25 34.2518 6.3817 33.9339 6.61612 33.6994C6.85054 33.465 7.16848 33.3333 7.5 33.3333H18.75V43.75ZM31.25 43.75V18.75V43.75ZM31.25 43.75H42.5C42.8315 43.75 43.1495 43.6183 43.3839 43.3839C43.6183 43.1495 43.75 42.8315 43.75 42.5V7.5C43.75 7.16848 43.6183 6.85054 43.3839 6.61612C43.1495 6.3817 42.8315 6.25 42.5 6.25H32.5C32.1685 6.25 31.8505 6.3817 31.6161 6.61612C31.3817 6.85054 31.25 7.16848 31.25 7.5V18.75V43.75Z" stroke="white" stroke-width="1.5"/>
</svg>
