<svg width="59" height="59" viewBox="0 0 59 59" fill="none" xmlns="http://www.w3.org/2000/svg">
<path d="M46.2274 51.0934H24.3302C23.0396 51.0934 21.802 50.5807 20.8894 49.6682C19.9768 48.7556 19.4642 47.5179 19.4642 46.2273V36.4953H24.3302V46.2273H46.2274V12.1651H24.3302V21.8972H19.4642V12.1651C19.4642 10.8745 19.9768 9.63684 20.8894 8.72429C21.802 7.81173 23.0396 7.29906 24.3302 7.29906H46.2274C47.5179 7.29906 48.7556 7.81173 49.6682 8.72429C50.5807 9.63684 51.0934 10.8745 51.0934 12.1651V46.2273C51.0934 47.5179 50.5807 48.7556 49.6682 49.6682C48.7556 50.5807 47.5179 51.0934 46.2274 51.0934ZM29.1962 38.9283V31.6292H7.29907V26.7632H29.1962V19.4641L41.3613 29.1962L29.1962 38.9283Z" fill="white"/>
</svg>
