<svg width="772" height="738" viewBox="0 0 772 738" fill="none" xmlns="http://www.w3.org/2000/svg">
<path d="M386 0.260864C333.364 0.260864 292.241 19.6558 262.634 58.4456C233.026 97.2355 218.222 146.821 218.222 207.201C217.856 282.219 241.981 341.685 290.597 385.598C296.811 391.453 299.004 398.955 297.176 408.103L284.565 434.451C280.544 443.234 274.605 450.095 266.746 455.035C258.887 459.976 242.347 467.02 217.125 476.168C216.028 476.534 192.909 484.036 147.766 498.674C102.623 513.312 78.589 521.362 75.6648 522.826C44.9602 535.634 24.8561 548.991 15.3523 562.897C5.11742 585.951 0 644.319 0 738H772C772 644.319 766.883 585.951 756.648 562.897C747.144 548.991 727.04 535.634 696.335 522.826C693.411 521.362 669.377 513.312 624.234 498.674C579.091 484.036 555.972 476.534 554.875 476.168C529.653 467.02 513.113 459.976 505.254 455.035C497.395 450.095 491.455 443.234 487.435 434.451L474.824 408.103C472.996 398.955 475.189 391.453 481.403 385.598C530.019 341.685 554.144 282.219 553.778 207.201C553.778 146.821 538.974 97.2355 509.366 58.4456C479.759 19.6558 438.636 0.260864 386 0.260864Z" fill="#9BB169"/>
</svg>
