<svg width="50" height="50" viewBox="0 0 50 50" fill="none" xmlns="http://www.w3.org/2000/svg">
<path d="M14.6375 36.0094V28.8219H21.7031V26.9156H14.6375V21.2531H22.3375V19.3469H12.5V36.0094H14.6375ZM24.9375 36.0094H27.05V28.0625C27.05 26.3312 27.7594 24.9156 30.0281 24.9156C30.4187 24.9156 30.8344 24.9281 31.0562 24.9625V23.0469C30.7935 23.0074 30.5282 22.9865 30.2625 22.9844C28.4437 22.9844 27.4781 23.9844 27.1 24.7562H27.0375V23.1813H24.9375V36.0094ZM33.7031 20.0937C33.7031 20.8375 34.3031 21.4219 35.0469 21.4219C35.2277 21.4306 35.4085 21.4026 35.5782 21.3394C35.7479 21.2762 35.903 21.1792 36.0341 21.0543C36.1652 20.9294 36.2696 20.7791 36.3409 20.6127C36.4122 20.4462 36.449 20.267 36.449 20.0859C36.449 19.9049 36.4122 19.7257 36.3409 19.5592C36.2696 19.3928 36.1652 19.2425 36.0341 19.1176C35.903 18.9927 35.7479 18.8957 35.5782 18.8325C35.4085 18.7693 35.2277 18.7412 35.0469 18.75C34.8699 18.7483 34.6945 18.7819 34.5307 18.8489C34.3669 18.9158 34.2181 19.0147 34.093 19.1399C33.9679 19.265 33.8689 19.4138 33.802 19.5775C33.7351 19.7413 33.7015 19.9168 33.7031 20.0937ZM33.9969 36.0094H36.0969V23.1813H33.9969V36.0094Z" fill="white"/>
<path d="M10.9375 0C11.3519 0 11.7493 0.16462 12.0424 0.457646C12.3354 0.750671 12.5 1.1481 12.5 1.5625V3.125H37.5V1.5625C37.5 1.1481 37.6646 0.750671 37.9576 0.457646C38.2507 0.16462 38.6481 0 39.0625 0C39.4769 0 39.8743 0.16462 40.1674 0.457646C40.4604 0.750671 40.625 1.1481 40.625 1.5625V3.125H43.75C45.4076 3.125 46.9973 3.78348 48.1694 4.95558C49.3415 6.12769 50 7.7174 50 9.375V43.75C50 45.4076 49.3415 46.9973 48.1694 48.1694C46.9973 49.3415 45.4076 50 43.75 50H6.25C4.5924 50 3.00269 49.3415 1.83058 48.1694C0.65848 46.9973 0 45.4076 0 43.75V9.375C0 7.7174 0.65848 6.12769 1.83058 4.95558C3.00269 3.78348 4.5924 3.125 6.25 3.125H9.375V1.5625C9.375 1.1481 9.53962 0.750671 9.83265 0.457646C10.1257 0.16462 10.5231 0 10.9375 0V0ZM3.125 12.5V43.75C3.125 44.5788 3.45424 45.3737 4.04029 45.9597C4.62634 46.5458 5.4212 46.875 6.25 46.875H43.75C44.5788 46.875 45.3737 46.5458 45.9597 45.9597C46.5458 45.3737 46.875 44.5788 46.875 43.75V12.5H3.125Z" fill="white"/>
</svg>
