<svg width="64" height="64" viewBox="0 0 64 64" fill="none" xmlns="http://www.w3.org/2000/svg">
<g clip-path="url(#clip0)">
<path d="M46.5414 42.4943C45.3416 41.873 44.1247 41.2851 42.8923 40.7312C41.8966 40.2524 41.2036 39.996 41.2036 39.996L36.6822 35.3761C34.9305 38.4423 32.1205 40.7641 28.7791 41.9062C21.1711 44.5049 12.8641 40.4296 10.2648 32.8196C7.6654 25.2096 11.7434 16.9039 19.3514 14.3053C26.9594 11.7066 35.2664 15.7819 37.8657 23.3919C39.0529 26.8676 38.8339 30.4803 37.537 33.6377L43.9575 34.3881C43.9575 34.3881 44.5843 34.7794 45.5722 35.2741C46.5485 35.7927 47.8593 36.4655 49.1993 37.0821L52.8581 38.822L54.5384 39.5778L51.7852 45.1877L50.1594 44.3208C49.1707 43.8241 47.8561 43.1592 46.5414 42.4943ZM33.9227 24.7387C32.0661 19.3033 26.1336 16.3917 20.6982 18.2483C15.2628 20.1048 12.3512 26.0374 14.2077 31.4728C16.0643 36.9082 21.9968 39.8198 27.4323 37.9632C32.8677 36.1066 35.7793 30.1741 33.9227 24.7387Z" fill="white"/>
</g>
<defs>
<clipPath id="clip0">
<rect width="50" height="50" fill="white" transform="matrix(0.323235 0.946319 0.946319 -0.323235 0.261108 16.4229)"/>
</clipPath>
</defs>
</svg>
