<svg width="50" height="50" viewBox="0 0 50 50" fill="none" xmlns="http://www.w3.org/2000/svg">
<path d="M19.7916 11.4583C22.0833 11.4583 23.9583 9.58333 23.9583 7.29167C23.9583 5 22.0833 3.125 19.7916 3.125C17.5 3.125 15.625 5 15.625 7.29167C15.625 9.58333 17.5 11.4583 19.7916 11.4583ZM11.9791 18.5417L6.24996 47.9167H10.625L14.2708 31.25L18.75 35.4167V47.9167H22.9166V32.1875L18.6458 27.9167L19.8958 21.6667C22.6041 25 26.6666 27.0833 31.25 27.0833V22.9167C27.3958 22.9167 24.0625 20.8333 22.1875 17.8125L20.2083 14.4792C19.4791 13.2292 18.125 12.5 16.6666 12.5C16.1458 12.5 15.625 12.6042 15.1041 12.8125L4.16663 17.2917V27.0833H8.33329V20.1042L11.9791 18.5417ZM27.0833 4.16667V18.75H34.8958V47.9167H38.0208V18.75H45.8333V4.16667H27.0833ZM37.5208 16.6667V13.0208H30.2083V9.89583H37.5208V6.25L42.7083 11.4583L37.5208 16.6667Z" fill="white"/>
</svg>
